<svg width="40" height="40" viewBox="0 0 40 40" fill="none" xmlns="http://www.w3.org/2000/svg">
<rect width="40" height="40" rx="20" fill="#F5F5F5"/>
<path d="M20 12.3608C22.0755 12.3608 22.3344 12.3685 23.1487 12.4067C23.9623 12.4449 24.5161 12.5724 25.0034 12.7619C25.5076 12.9559 25.9323 13.2187 26.3571 13.6426C26.7455 14.0245 27.0461 14.4864 27.2378 14.9963C27.4265 15.4829 27.5548 16.0374 27.593 16.851C27.6289 17.6653 27.6389 17.9242 27.6389 19.9997C27.6389 22.0752 27.6312 22.3342 27.593 23.1485C27.5548 23.962 27.4265 24.5158 27.2378 25.0032C27.0466 25.5133 26.746 25.9753 26.3571 26.3568C25.9751 26.7451 25.5132 27.0457 25.0034 27.2376C24.5168 27.4263 23.9623 27.5546 23.1487 27.5928C22.3344 27.6287 22.0755 27.6386 20 27.6386C17.9245 27.6386 17.6655 27.631 16.8512 27.5928C16.0377 27.5546 15.4839 27.4263 14.9965 27.2376C14.4865 27.0462 14.0245 26.7456 13.6429 26.3568C13.2544 25.975 12.9538 25.5131 12.7621 25.0032C12.5727 24.5166 12.4451 23.962 12.4069 23.1485C12.371 22.3342 12.3611 22.0752 12.3611 19.9997C12.3611 17.9242 12.3687 17.6653 12.4069 16.851C12.4451 16.0367 12.5727 15.4836 12.7621 14.9963C12.9533 14.4861 13.2539 14.0241 13.6429 13.6426C14.0246 13.254 14.4866 12.9534 14.9965 12.7619C15.4839 12.5724 16.0369 12.4449 16.8512 12.4067C17.6655 12.3708 17.9245 12.3608 20 12.3608ZM20 16.1803C18.987 16.1803 18.0155 16.5827 17.2992 17.299C16.5829 18.0153 16.1805 18.9867 16.1805 19.9997C16.1805 21.0127 16.5829 21.9842 17.2992 22.7005C18.0155 23.4168 18.987 23.8192 20 23.8192C21.013 23.8192 21.9844 23.4168 22.7007 22.7005C23.417 21.9842 23.8194 21.0127 23.8194 19.9997C23.8194 18.9867 23.417 18.0153 22.7007 17.299C21.9844 16.5827 21.013 16.1803 20 16.1803ZM24.9653 15.9893C24.9653 15.7361 24.8647 15.4932 24.6856 15.3141C24.5065 15.1351 24.2636 15.0345 24.0104 15.0345C23.7571 15.0345 23.5143 15.1351 23.3352 15.3141C23.1561 15.4932 23.0555 15.7361 23.0555 15.9893C23.0555 16.2426 23.1561 16.4854 23.3352 16.6645C23.5143 16.8436 23.7571 16.9442 24.0104 16.9442C24.2636 16.9442 24.5065 16.8436 24.6856 16.6645C24.8647 16.4854 24.9653 16.2426 24.9653 15.9893ZM20 17.7081C20.6078 17.7081 21.1907 17.9495 21.6204 18.3793C22.0502 18.809 22.2916 19.3919 22.2916 19.9997C22.2916 20.6075 22.0502 21.1904 21.6204 21.6202C21.1907 22.05 20.6078 22.2914 20 22.2914C19.3922 22.2914 18.8093 22.05 18.3795 21.6202C17.9497 21.1904 17.7083 20.6075 17.7083 19.9997C17.7083 19.3919 17.9497 18.809 18.3795 18.3793C18.8093 17.9495 19.3922 17.7081 20 17.7081Z" fill="#080808"/>
</svg>
