<svg width="40" height="40" viewBox="0 0 40 40" fill="none" xmlns="http://www.w3.org/2000/svg">
<path d="M16.1347 14.6526C16.1345 15.0578 15.9733 15.4463 15.6867 15.7326C15.4 16.019 15.0113 16.1798 14.6061 16.1796C14.201 16.1794 13.8124 16.0182 13.5261 15.7316C13.2397 15.4449 13.0789 15.0562 13.0791 14.651C13.0793 14.2458 13.2405 13.8573 13.5271 13.571C13.8138 13.2846 14.2025 13.1238 14.6077 13.124C15.0129 13.1242 15.4014 13.2854 15.6878 13.572C15.9741 13.8587 16.1349 14.2474 16.1347 14.6526V14.6526ZM16.1805 17.3109H13.125V26.8748H16.1805V17.3109ZM21.0083 17.3109H17.968V26.8748H20.9777V21.856C20.9777 19.0602 24.6215 18.8005 24.6215 21.856V26.8748H27.6389V20.8171C27.6389 16.104 22.2458 16.2796 20.9777 18.5942L21.0083 17.3109V17.3109Z" fill="#5C5C5C"/>
</svg>
