<svg width="40" height="40" viewBox="0 0 40 40" fill="none" xmlns="http://www.w3.org/2000/svg">
<path d="M27.7626 15.1538C27.1795 15.4118 26.561 15.5812 25.9278 15.6564C26.5952 15.2572 27.0948 14.629 27.3333 13.8888C26.7069 14.2616 26.0202 14.5228 25.3044 14.6641C24.8237 14.1497 24.1864 13.8086 23.4917 13.6937C22.797 13.5788 22.0838 13.6967 21.463 14.0289C20.8423 14.3612 20.3486 14.8892 20.0589 15.531C19.7692 16.1727 19.6996 16.8922 19.861 17.5776C18.5907 17.5139 17.348 17.1838 16.2136 16.6087C15.0792 16.0336 14.0784 15.2264 13.2762 14.2394C12.9923 14.7271 12.8431 15.2815 12.8439 15.8459C12.8439 16.9535 13.4076 17.9321 14.2647 18.505C13.7575 18.489 13.2615 18.352 12.8179 18.1055V18.1452C12.8181 18.8829 13.0733 19.5978 13.5404 20.1688C14.0075 20.7397 14.6577 21.1316 15.3808 21.2779C14.9099 21.4055 14.4162 21.4243 13.937 21.3329C14.1409 21.9679 14.5382 22.5232 15.0734 22.9211C15.6085 23.319 16.2547 23.5396 16.9215 23.552C16.2588 24.0724 15.5001 24.4572 14.6886 24.6842C13.8771 24.9112 13.0288 24.9761 12.1923 24.875C13.6526 25.8142 15.3526 26.3128 17.0888 26.3111C22.9654 26.3111 26.1791 21.4429 26.1791 17.2209C26.1791 17.0834 26.1753 16.9443 26.1692 16.8084C26.7947 16.3563 27.3346 15.7962 27.7634 15.1546L27.7626 15.1538Z" fill="#5C5C5C"/>
</svg>
