<svg width="59" height="59" viewBox="0 0 59 59" fill="none" xmlns="http://www.w3.org/2000/svg">
<path d="M29.5001 1.17969C13.8592 1.17969 1.18005 13.8588 1.18005 29.4997C1.18005 45.1406 13.8592 57.8197 29.5001 57.8197C45.141 57.8197 57.8201 45.1406 57.8201 29.4997C57.8201 13.8588 45.141 1.17969 29.5001 1.17969ZM41.0198 24.3785C41.0316 24.6204 41.0346 24.8623 41.0346 25.0983C41.0346 32.4733 35.4266 40.9722 25.1665 40.9722C22.1348 40.9773 19.1661 40.1066 16.6174 38.4647C17.0511 38.5178 17.4965 38.5385 17.9479 38.5385C20.5616 38.5385 22.9658 37.6505 24.8745 36.1519C23.7113 36.1291 22.5843 35.7439 21.6504 35.0502C20.7166 34.3564 20.0224 33.3885 19.6648 32.2815C20.5001 32.4404 21.3606 32.4071 22.1811 32.1842C20.9186 31.9289 19.7833 31.2448 18.9677 30.248C18.152 29.2512 17.7063 28.0029 17.706 26.7149V26.647C18.4582 27.063 19.3196 27.3167 20.2341 27.3462C19.0506 26.5583 18.2127 25.3481 17.8919 23.9629C17.5712 22.5778 17.7917 21.1224 18.5084 19.8945C19.9095 21.6173 21.6568 23.0266 23.6371 24.0313C25.6175 25.036 27.7868 25.6135 30.0045 25.7266C29.7226 24.5298 29.8439 23.2734 30.3497 22.1527C30.8555 21.032 31.7173 20.1098 32.8013 19.5295C33.8853 18.9491 35.1306 18.7432 36.3437 18.9436C37.5568 19.1441 38.6697 19.7397 39.5094 20.6379C40.7578 20.3909 41.9549 19.933 43.0494 19.2838C42.6333 20.5763 41.7622 21.6739 40.598 22.3725C41.7038 22.2393 42.7835 21.942 43.8017 21.4904C43.0538 22.6111 42.1117 23.5892 41.0198 24.3785Z" fill="#2AABEE"/>
</svg>
