<svg width="29" height="29" viewBox="0 0 29 29" fill="none" xmlns="http://www.w3.org/2000/svg">
<path d="M14.3181 13.6417V10.942L17.9177 14.5416L14.3181 18.1411V15.4415H10.7186V13.6417H14.3181ZM14.3181 5.54272C19.2855 5.54272 23.317 9.57421 23.317 14.5416C23.317 19.5089 19.2855 23.5404 14.3181 23.5404C9.35076 23.5404 5.31927 19.5089 5.31927 14.5416C5.31927 9.57421 9.35076 5.54272 14.3181 5.54272ZM14.3181 21.7406C18.2956 21.7406 21.5172 18.5191 21.5172 14.5416C21.5172 10.5641 18.2956 7.34249 14.3181 7.34249C10.3406 7.34249 7.11904 10.5641 7.11904 14.5416C7.11904 18.5191 10.3406 21.7406 14.3181 21.7406Z" fill="white"/>
</svg>
