<svg width="29" height="30" viewBox="0 0 29 30" fill="none" xmlns="http://www.w3.org/2000/svg">
<path d="M14.3183 13.9749V11.2753L17.9179 14.8748L14.3183 18.4744V15.7747H10.7188V13.9749H14.3183ZM14.3183 5.87598C19.2857 5.87598 23.3172 9.90746 23.3172 14.8748C23.3172 19.8422 19.2857 23.8737 14.3183 23.8737C9.35096 23.8737 5.31948 19.8422 5.31948 14.8748C5.31948 9.90746 9.35096 5.87598 14.3183 5.87598ZM14.3183 22.0739C18.2958 22.0739 21.5174 18.8523 21.5174 14.8748C21.5174 10.8973 18.2958 7.67575 14.3183 7.67575C10.3408 7.67575 7.11925 10.8973 7.11925 14.8748C7.11925 18.8523 10.3408 22.0739 14.3183 22.0739Z" fill="white"/>
</svg>
