<svg width="29" height="29" viewBox="0 0 29 29" fill="none" xmlns="http://www.w3.org/2000/svg">
<path d="M14.3182 13.3084V10.6088L17.9177 14.2083L14.3182 17.8079V15.1082H10.7186V13.3084H14.3182ZM14.3182 5.20947C19.2855 5.20947 23.317 9.24095 23.317 14.2083C23.317 19.1757 19.2855 23.2072 14.3182 23.2072C9.35082 23.2072 5.31934 19.1757 5.31934 14.2083C5.31934 9.24095 9.35082 5.20947 14.3182 5.20947ZM14.3182 21.4074C18.2957 21.4074 21.5173 18.1858 21.5173 14.2083C21.5173 10.2308 18.2957 7.00924 14.3182 7.00924C10.3407 7.00924 7.1191 10.2308 7.1191 14.2083C7.1191 18.1858 10.3407 21.4074 14.3182 21.4074Z" fill="white"/>
</svg>
