<svg width="1452" height="114" viewBox="0 0 1452 114" fill="none" xmlns="http://www.w3.org/2000/svg">
<path d="M76.4191 55.371C76.0401 55.7523 75.7498 56.2125 75.569 56.7187C75.3882 57.225 75.3213 57.7649 75.373 58.3L75.355 58.282C75.4082 58.9119 75.3232 59.5457 75.1061 60.1394C74.889 60.733 74.5451 61.2721 74.0982 61.7191C73.6512 62.166 73.112 62.5101 72.5183 62.7271C71.9247 62.9442 71.2908 63.0292 70.661 62.976L70.6791 62.994C69.9257 62.9239 69.1689 63.0878 68.512 63.4635C67.8552 63.8392 67.3302 64.4083 67.0087 65.0933C66.6872 65.7783 66.5847 66.5457 66.7153 67.2911C66.846 68.0364 67.2033 68.7233 67.7386 69.2581C68.2739 69.7929 68.9611 70.1496 69.7065 70.2795C70.452 70.4095 71.2193 70.3063 71.904 69.9842C72.5887 69.662 73.1573 69.1366 73.5324 68.4794C73.9075 67.8222 74.0708 67.0654 74 66.312L74.019 66.33C73.9658 65.7002 74.0507 65.0663 74.2678 64.4726C74.4849 63.879 74.829 63.3399 75.2759 62.8929C75.7229 62.446 76.262 62.1019 76.8556 61.8849C77.4493 61.6678 78.0831 61.5828 78.713 61.636L78.694 61.618C79.3094 61.6733 79.929 61.5724 80.4951 61.3246C81.0611 61.0768 81.5554 60.6901 81.9322 60.2004C82.309 59.7107 82.5563 59.1337 82.6507 58.5231C82.7452 57.9124 82.6839 57.2878 82.4727 56.707C82.2615 56.1263 81.9071 55.6083 81.4424 55.201C80.9777 54.7937 80.4178 54.5103 79.8144 54.3771C79.211 54.2439 78.5837 54.2651 77.9907 54.4388C77.3977 54.6126 76.8582 54.9332 76.4221 55.371H76.4191Z" fill="white"/>
<path d="M69.0422 60.636L69.0232 60.618C69.5585 60.6719 70.0991 60.6062 70.606 60.4256C71.1128 60.245 71.5732 59.9541 71.9538 59.5738C72.3343 59.1935 72.6257 58.7333 72.8066 58.2266C72.9876 57.7199 73.0537 57.1794 73.0002 56.644L73.0192 56.662C72.966 56.0321 73.051 55.3983 73.268 54.8046C73.4851 54.211 73.8292 53.6719 74.2761 53.2249C74.7231 52.778 75.2622 52.4339 75.8558 52.2169C76.4495 51.9998 77.0833 51.9148 77.7132 51.968L77.6942 51.95C78.4477 52.0208 79.2046 51.8574 79.8618 51.4821C80.5191 51.1068 81.0445 50.538 81.3665 49.8531C81.6885 49.1682 81.7914 48.4007 81.6612 47.6552C81.531 46.9097 81.174 46.2225 80.6388 45.6874C80.1037 45.1522 79.4165 44.7952 78.671 44.665C77.9255 44.5347 77.158 44.6377 76.4731 44.9597C75.7882 45.2817 75.2194 45.8071 74.8441 46.4643C74.4688 47.1215 74.3054 47.8785 74.3762 48.632L74.3582 48.613C74.4115 49.2429 74.3267 49.8768 74.1097 50.4705C73.8927 51.0643 73.5486 51.6035 73.1017 52.0505C72.6547 52.4974 72.1155 52.8415 71.5218 53.0585C70.928 53.2755 70.2941 53.3603 69.6642 53.307L69.6822 53.326C69.1469 53.2721 68.6062 53.3378 68.0994 53.5184C67.5926 53.6989 67.1322 53.9899 66.7516 54.3702C66.371 54.7505 66.0797 55.2107 65.8987 55.7174C65.7178 56.2241 65.6517 56.7646 65.7052 57.3L65.6872 57.282C65.7402 57.9118 65.6551 58.5456 65.438 59.1392C65.2208 59.7327 64.8768 60.2718 64.4299 60.7187C63.9829 61.1656 63.4439 61.5096 62.8503 61.7268C62.2568 61.9439 61.623 62.029 60.9932 61.976L61.0112 61.994C60.2577 61.9232 59.5007 62.0866 58.8435 62.4619C58.1863 62.8372 57.6608 63.406 57.3388 64.0909C57.0168 64.7758 56.9139 65.5433 57.0441 66.2888C57.1744 67.0343 57.5314 67.7215 58.0665 68.2566C58.6017 68.7918 59.2888 69.1488 60.0344 69.279C60.7799 69.4092 61.5474 69.3063 62.2323 68.9843C62.9171 68.6623 63.486 68.1369 63.8613 67.4797C64.2366 66.8224 64.4 66.0655 64.3292 65.312L64.3482 65.33C64.295 64.7001 64.38 64.0663 64.5971 63.4726C64.8141 62.879 65.1582 62.3399 65.6051 61.8929C66.0521 61.446 66.5912 61.1019 67.1848 60.8849C67.7785 60.6678 68.4123 60.5828 69.0422 60.636Z" fill="white"/>
<path d="M62.3402 58.6289C62.7192 58.2477 63.0094 57.7875 63.1901 57.2812C63.3707 56.7749 63.4373 56.2349 63.3852 55.6999L63.4042 55.7179C63.351 55.0879 63.436 54.4538 63.6532 53.86C63.8704 53.2662 64.2146 52.727 64.6618 52.28C65.109 51.8331 65.6483 51.4891 66.2422 51.2721C66.8361 51.0552 67.4702 50.9705 68.1002 51.0239L68.0812 51.0059C68.8344 51.0765 69.5911 50.913 70.248 50.5378C70.9049 50.1625 71.43 49.5938 71.7519 48.9092C72.0737 48.2245 72.1765 47.4573 72.0463 46.712C71.9161 45.9668 71.5591 45.2799 71.0242 44.7449C70.4893 44.21 69.8023 43.8531 69.0571 43.7229C68.3119 43.5926 67.5446 43.6954 66.86 44.0173C66.1753 44.3391 65.6066 44.8643 65.2314 45.5212C64.8561 46.1781 64.6926 46.9347 64.7632 47.6879L64.7452 47.6699C64.7984 48.2998 64.7134 48.9337 64.4963 49.5273C64.2792 50.1209 63.9352 50.66 63.4883 51.107C63.0413 51.554 62.5022 51.898 61.9086 52.115C61.3149 52.3321 60.6811 52.4171 60.0512 52.3639L60.0692 52.3819C59.4538 52.3267 58.8344 52.4278 58.2684 52.6757C57.7024 52.9236 57.2082 53.3104 56.8315 53.8002C56.4547 54.2899 56.2078 54.8669 56.1134 55.4775C56.019 56.0882 56.0803 56.7128 56.2916 57.2934C56.5028 57.8741 56.8573 58.392 57.322 58.7992C57.7867 59.2065 58.3467 59.4898 58.9501 59.623C59.5535 59.7561 60.1807 59.7348 60.7737 59.5611C61.3666 59.3873 61.9061 59.0667 62.3422 58.6289H62.3402Z" fill="white"/>
<path d="M93.3164 48.655H96.2864V63.108H93.3164V48.655Z" fill="white"/>
<path d="M97.9689 58.159C97.9648 57.1204 98.269 56.1038 98.843 55.2382C99.417 54.3726 100.235 53.6968 101.193 53.2965C102.152 52.8961 103.207 52.7892 104.227 52.9893C105.246 53.1894 106.183 53.6874 106.919 54.4204C107.654 55.1533 108.156 56.0882 108.36 57.1066C108.565 58.125 108.462 59.1811 108.065 60.1411C107.669 61.101 106.996 61.9218 106.133 62.4992C105.27 63.0767 104.255 63.385 103.216 63.385C102.526 63.3929 101.842 63.2632 101.204 63.0036C100.565 62.744 99.9842 62.3597 99.4957 61.8732C99.0071 61.3866 98.6205 60.8075 98.3584 60.1698C98.0962 59.5321 97.9638 58.8485 97.9689 58.159ZM105.493 58.159C105.48 57.7113 105.336 57.2772 105.079 56.9109C104.821 56.5447 104.461 56.2625 104.044 56.0998C103.626 55.937 103.17 55.9008 102.733 55.9958C102.295 56.0908 101.895 56.3126 101.583 56.6337C101.271 56.9547 101.06 57.3607 100.977 57.8009C100.894 58.241 100.943 58.6958 101.117 59.1084C101.292 59.521 101.584 59.873 101.957 60.1205C102.33 60.368 102.768 60.5 103.216 60.5C103.523 60.5082 103.828 60.4527 104.112 60.3371C104.396 60.2215 104.653 60.0483 104.867 59.8284C105.081 59.6084 105.247 59.3465 105.355 59.0592C105.463 58.7719 105.51 58.4654 105.493 58.159Z" fill="white"/>
<path d="M120.3 53.2091V62.6091C120.3 65.9351 117.706 67.3411 115.073 67.3411C114.146 67.4105 113.218 67.2232 112.39 66.7999C111.562 66.3765 110.867 65.7334 110.381 64.9411L112.915 63.4761C113.119 63.8891 113.445 64.2298 113.848 64.4527C114.252 64.6755 114.714 64.7699 115.172 64.7231C115.465 64.7637 115.763 64.7379 116.045 64.6476C116.327 64.5573 116.584 64.4048 116.799 64.2015C117.014 63.9981 117.18 63.7491 117.286 63.4727C117.391 63.1964 117.433 62.8999 117.409 62.6051V61.7001C117.061 62.1256 116.619 62.4637 116.116 62.6872C115.614 62.9107 115.067 63.0134 114.518 62.9871C113.212 62.9459 111.973 62.3981 111.063 61.4595C110.154 60.521 109.646 59.2654 109.646 57.9586C109.646 56.6518 110.154 55.3962 111.063 54.4577C111.973 53.5191 113.212 52.9713 114.518 52.9301C115.067 52.9038 115.614 53.0065 116.116 53.23C116.619 53.4535 117.061 53.7916 117.409 54.2171V53.2071L120.3 53.2091ZM117.41 57.9601C117.43 57.4815 117.306 57.0078 117.055 56.6001C116.803 56.1923 116.435 55.8692 115.999 55.6723C115.562 55.4753 115.076 55.4136 114.604 55.495C114.132 55.5764 113.695 55.7972 113.35 56.1291C113.004 56.4609 112.766 56.8885 112.665 57.3569C112.565 57.8253 112.607 58.3131 112.786 58.7574C112.965 59.2017 113.273 59.5823 113.67 59.8501C114.068 60.1179 114.536 60.2607 115.015 60.2601C115.327 60.2819 115.64 60.2381 115.934 60.1315C116.228 60.0249 116.497 59.8578 116.722 59.6412C116.948 59.4245 117.126 59.163 117.244 58.8734C117.363 58.5839 117.419 58.2728 117.41 57.9601Z" fill="white"/>
<path d="M121.983 58.159C121.978 57.1204 122.283 56.1038 122.857 55.2382C123.431 54.3726 124.249 53.6968 125.207 53.2965C126.165 52.8961 127.221 52.7892 128.24 52.9893C129.259 53.1894 130.196 53.6874 130.932 54.4204C131.668 55.1533 132.17 56.0882 132.374 57.1066C132.578 58.125 132.476 59.1811 132.079 60.1411C131.683 61.101 131.01 61.9218 130.147 62.4992C129.283 63.0767 128.268 63.385 127.23 63.385C126.54 63.3929 125.856 63.2632 125.217 63.0036C124.578 62.744 123.998 62.3597 123.509 61.8732C123.021 61.3866 122.634 60.8075 122.372 60.1698C122.11 59.5321 121.977 58.8485 121.983 58.159ZM129.507 58.159C129.494 57.7113 129.35 57.2772 129.092 56.9109C128.835 56.5447 128.475 56.2625 128.057 56.0998C127.64 55.937 127.184 55.9008 126.746 55.9958C126.309 56.0908 125.909 56.3126 125.596 56.6337C125.284 56.9547 125.073 57.3607 124.991 57.8009C124.908 58.241 124.957 58.6958 125.131 59.1084C125.305 59.521 125.597 59.873 125.97 60.1205C126.344 60.368 126.782 60.5 127.23 60.5C127.536 60.5082 127.841 60.4527 128.126 60.3371C128.41 60.2215 128.667 60.0483 128.881 59.8284C129.095 59.6084 129.261 59.3465 129.369 59.0592C129.476 58.7719 129.523 58.4654 129.507 58.159Z" fill="white"/>
<path d="M133.861 50.556C133.861 50.2036 133.966 49.8591 134.162 49.566C134.357 49.273 134.636 49.0446 134.961 48.9097C135.287 48.7748 135.645 48.7395 135.991 48.8083C136.337 48.877 136.654 49.0468 136.903 49.296C137.153 49.5452 137.322 49.8627 137.391 50.2084C137.46 50.5541 137.425 50.9124 137.29 51.238C137.155 51.5636 136.926 51.8419 136.633 52.0377C136.34 52.2335 135.996 52.3381 135.643 52.3381C135.172 52.3334 134.722 52.1441 134.388 51.8109C134.055 51.4777 133.866 51.0272 133.861 50.556ZM134.161 53.209H137.132V63.109H134.157L134.161 53.209Z" fill="white"/>
<path d="M149.956 58.159C149.99 58.8133 149.895 59.4679 149.675 60.0852C149.456 60.7025 149.116 61.2703 148.676 61.756C148.237 62.2416 147.705 62.6356 147.113 62.9152C146.52 63.1947 145.878 63.3544 145.224 63.385C144.673 63.415 144.123 63.3222 143.613 63.1133C143.103 62.9043 142.646 62.5845 142.275 62.177V67.068H139.305V53.209H142.275V54.139C142.646 53.7318 143.103 53.4122 143.613 53.2035C144.123 52.9947 144.673 52.902 145.224 52.932C145.878 52.9625 146.52 53.1221 147.113 53.4017C147.706 53.6813 148.237 54.0753 148.677 54.5611C149.117 55.0469 149.456 55.6149 149.676 56.2324C149.895 56.8498 149.99 57.5046 149.956 58.159ZM146.986 58.159C146.974 57.6957 146.826 57.2461 146.56 56.8664C146.294 56.4868 145.922 56.194 145.491 56.0248C145.059 55.8555 144.588 55.8172 144.135 55.9148C143.681 56.0123 143.267 56.2413 142.944 56.5731C142.62 56.905 142.402 57.3248 142.315 57.7803C142.229 58.2357 142.279 58.7063 142.46 59.1334C142.64 59.5605 142.942 59.9249 143.328 60.1812C143.714 60.4374 144.167 60.5741 144.631 60.574C144.949 60.5882 145.266 60.5349 145.563 60.4177C145.859 60.3006 146.127 60.1221 146.349 59.8941C146.572 59.666 146.743 59.3936 146.853 59.0946C146.963 58.7956 147.008 58.4767 146.986 58.159Z" fill="white"/>
<path d="M159.121 60.138C159.121 62.415 157.142 63.385 155.004 63.385C154.14 63.4632 153.273 63.2806 152.514 62.8605C151.755 62.4405 151.14 61.8025 150.747 61.029L153.32 59.564C153.424 59.9215 153.648 60.2326 153.953 60.4451C154.259 60.6577 154.629 60.759 155 60.732C155.712 60.732 156.069 60.514 156.069 60.119C156.069 59.029 151.198 59.604 151.198 56.179C151.198 54.02 153.02 52.932 155.079 52.932C155.853 52.9075 156.619 53.0911 157.298 53.4636C157.977 53.8362 158.544 54.384 158.939 55.05L156.405 56.416C156.294 56.1567 156.109 55.9358 155.873 55.7809C155.637 55.626 155.361 55.544 155.079 55.545C154.564 55.545 154.247 55.745 154.247 56.099C154.251 57.228 159.121 56.475 159.121 60.138Z" fill="white"/>
<path d="M169.971 53.209V63.109H167.001V62.178C166.658 62.5888 166.223 62.9125 165.731 63.1225C165.239 63.3325 164.705 63.4228 164.171 63.386C162.171 63.386 160.471 61.961 160.471 59.286V53.209H163.441V58.851C163.416 59.0868 163.443 59.3252 163.52 59.5495C163.596 59.7739 163.721 59.9789 163.885 60.1502C164.049 60.3215 164.248 60.455 164.469 60.5415C164.689 60.628 164.926 60.6654 165.163 60.651C166.252 60.651 167.004 60.018 167.004 58.612V53.212L169.971 53.209Z" fill="white"/>
<path d="M186.999 57.03V63.108H184.029V57.287C184.029 56.297 183.554 55.664 182.604 55.664C181.614 55.664 181.059 56.357 181.059 57.525V63.108H178.09V57.287C178.09 56.297 177.615 55.664 176.664 55.664C175.674 55.664 175.12 56.357 175.12 57.525V63.108H172.15V53.208H175.12V54.118C175.428 53.7143 175.832 53.3941 176.295 53.1868C176.759 52.9794 177.267 52.8915 177.773 52.931C178.281 52.9061 178.787 53.0134 179.242 53.2423C179.696 53.4711 180.083 53.8139 180.366 54.237C180.695 53.7943 181.131 53.4423 181.633 53.2139C182.135 52.9855 182.687 52.8882 183.237 52.931C185.51 52.932 186.999 54.555 186.999 57.03Z" fill="white"/>
<path d="M189.513 53.148C190.73 53.148 191.717 52.1612 191.717 50.944C191.717 49.7268 190.73 48.74 189.513 48.74C188.296 48.74 187.309 49.7268 187.309 50.944C187.309 52.1612 188.296 53.148 189.513 53.148Z" fill="white"/>
<rect x="1" y="1" width="248.5" height="112" stroke="#C3C9D5"/>
<path d="M498.683 63.5104H508.174V60.6304H502.056V49.7824H498.683V63.5104Z" fill="#ACB4C3"/>
<path d="M513.798 61.5904C512.445 61.5904 511.739 60.4 511.739 58.6144C511.739 56.8288 512.445 55.6192 513.798 55.6192C515.151 55.6192 515.875 56.8288 515.875 58.6144C515.875 60.4 515.151 61.5904 513.798 61.5904ZM513.817 63.8176C516.962 63.8176 519.02 61.5712 519.02 58.6144C519.02 55.6576 516.962 53.4112 513.817 53.4112C510.691 53.4112 508.595 55.6576 508.595 58.6144C508.595 61.5712 510.691 63.8176 513.817 63.8176Z" fill="#ACB4C3"/>
<path d="M524.463 66.9088C525.911 66.9088 527.188 66.5824 528.046 65.8144C528.827 65.104 529.342 64.0288 529.342 62.5504V53.68H526.369V54.736H526.33C525.759 53.9104 524.882 53.392 523.586 53.392C521.165 53.392 519.488 55.4272 519.488 58.3072C519.488 61.3216 521.528 62.9728 523.719 62.9728C524.901 62.9728 525.644 62.4928 526.216 61.84H526.292V62.8192C526.292 64.0096 525.74 64.7008 524.425 64.7008C523.395 64.7008 522.881 64.2592 522.709 63.7408H519.698C520.003 65.7952 521.775 66.9088 524.463 66.9088ZM524.444 60.6496C523.281 60.6496 522.519 59.6896 522.519 58.2112C522.519 56.7136 523.281 55.7536 524.444 55.7536C525.74 55.7536 526.426 56.8672 526.426 58.192C526.426 59.5744 525.797 60.6496 524.444 60.6496Z" fill="#ACB4C3"/>
<path d="M535.455 61.5904C534.102 61.5904 533.397 60.4 533.397 58.6144C533.397 56.8288 534.102 55.6192 535.455 55.6192C536.808 55.6192 537.532 56.8288 537.532 58.6144C537.532 60.4 536.808 61.5904 535.455 61.5904ZM535.474 63.8176C538.619 63.8176 540.677 61.5712 540.677 58.6144C540.677 55.6576 538.619 53.4112 535.474 53.4112C532.348 53.4112 530.252 55.6576 530.252 58.6144C530.252 61.5712 532.348 63.8176 535.474 63.8176Z" fill="#ACB4C3"/>
<path d="M541.584 63.5104H544.691V53.68H541.584V63.5104ZM541.584 52.3168H544.691V49.7824H541.584V52.3168Z" fill="#ACB4C3"/>
<path d="M546.039 66.7552H549.146V62.4928H549.184C549.794 63.3184 550.689 63.8176 551.947 63.8176C554.501 63.8176 556.197 61.7824 556.197 58.5952C556.197 55.6384 554.616 53.392 552.024 53.392C550.689 53.392 549.736 53.9872 549.069 54.8704H549.012V53.68H546.039V66.7552ZM551.147 61.3984C549.813 61.3984 549.05 60.304 549.05 58.7104C549.05 57.1168 549.736 55.9072 551.09 55.9072C552.424 55.9072 553.053 57.0208 553.053 58.7104C553.053 60.3808 552.328 61.3984 551.147 61.3984Z" fill="#ACB4C3"/>
<path d="M561.255 63.8176C563.809 63.8176 565.696 62.704 565.696 60.5536C565.696 58.0384 563.676 57.5968 561.961 57.3088C560.722 57.0784 559.616 56.9824 559.616 56.2912C559.616 55.6768 560.207 55.3888 560.97 55.3888C561.827 55.3888 562.418 55.6576 562.532 56.5408H565.391C565.239 54.6016 563.752 53.392 560.989 53.392C558.682 53.392 556.777 54.4672 556.777 56.5408C556.777 58.8448 558.587 59.3056 560.283 59.5936C561.579 59.824 562.761 59.92 562.761 60.8032C562.761 61.4368 562.17 61.7824 561.236 61.7824C560.207 61.7824 559.559 61.3024 559.445 60.3232H556.51C556.605 62.4928 558.397 63.8176 561.255 63.8176Z" fill="#ACB4C3"/>
<path d="M569.917 63.7983C571.27 63.7983 572.128 63.2607 572.833 62.3007H572.89V63.5103H575.863V53.6799H572.757V59.1711C572.757 60.3423 572.109 61.1487 571.041 61.1487C570.05 61.1487 569.574 60.5535 569.574 59.4783V53.6799H566.486V60.1311C566.486 62.3199 567.668 63.7983 569.917 63.7983Z" fill="#ACB4C3"/>
<path d="M577.213 63.5105H580.319V58.0001C580.319 56.8289 580.891 56.0033 581.863 56.0033C582.797 56.0033 583.235 56.6177 583.235 57.6737V63.5105H586.342V58.0001C586.342 56.8289 586.895 56.0033 587.886 56.0033C588.82 56.0033 589.258 56.6177 589.258 57.6737V63.5105H592.365V57.1169C592.365 54.9089 591.259 53.3921 589.048 53.3921C587.791 53.3921 586.742 53.9297 585.98 55.1201H585.942C585.446 54.0641 584.474 53.3921 583.197 53.3921C581.787 53.3921 580.853 54.0641 580.243 55.0817H580.186V53.6801H577.213V63.5105Z" fill="#ACB4C3"/>
<path fill-rule="evenodd" clip-rule="evenodd" d="M473.925 73.1104C482.697 73.1104 489.808 65.9469 489.808 57.1104C489.808 48.2739 482.697 41.1104 473.925 41.1104C465.154 41.1104 458.043 48.2739 458.043 57.1104C458.043 65.9469 465.154 73.1104 473.925 73.1104ZM478.88 48.5639C479.121 47.7009 478.29 47.1905 477.531 47.7355L466.932 55.3421C466.108 55.933 466.238 57.1104 467.126 57.1104H469.917V57.0886H475.357L470.925 58.6641L468.971 65.6569C468.729 66.52 469.561 67.0303 470.32 66.4853L480.919 58.8788C481.742 58.2878 481.613 57.1104 480.724 57.1104H476.492L478.88 48.5639Z" fill="#ACB4C3"/>
<rect x="401.5" y="1" width="248.5" height="112" stroke="#E7EAEE"/>
<path d="M897.564 63.473H906.797V60.6633H900.846V50.0798H897.564V63.473Z" fill="#ACB4C3"/>
<path d="M912.267 61.5999C910.951 61.5999 910.265 60.4385 910.265 58.6965C910.265 56.9544 910.951 55.7743 912.267 55.7743C913.583 55.7743 914.288 56.9544 914.288 58.6965C914.288 60.4385 913.583 61.5999 912.267 61.5999ZM912.286 63.7728C915.345 63.7728 917.347 61.5812 917.347 58.6965C917.347 55.8118 915.345 53.6202 912.286 53.6202C909.245 53.6202 907.206 55.8118 907.206 58.6965C907.206 61.5812 909.245 63.7728 912.286 63.7728Z" fill="#ACB4C3"/>
<path d="M922.641 66.7886C924.05 66.7886 925.292 66.4701 926.127 65.7209C926.887 65.0278 927.387 63.9788 927.387 62.5365V53.8824H924.495V54.9127H924.458C923.902 54.1072 923.049 53.6014 921.789 53.6014C919.434 53.6014 917.803 55.587 917.803 58.3968C917.803 61.3376 919.786 62.9486 921.918 62.9486C923.068 62.9486 923.791 62.4803 924.347 61.8434H924.421V62.7987C924.421 63.9601 923.884 64.6344 922.604 64.6344C921.603 64.6344 921.103 64.2036 920.936 63.6978H918.007C918.303 65.7021 920.027 66.7886 922.641 66.7886ZM922.623 60.682C921.492 60.682 920.75 59.7454 920.75 58.3031C920.75 56.842 921.492 55.9054 922.623 55.9054C923.883 55.9054 924.551 56.9919 924.551 58.2844C924.551 59.633 923.939 60.682 922.623 60.682Z" fill="#ACB4C3"/>
<path d="M933.335 61.5999C932.018 61.5999 931.332 60.4385 931.332 58.6965C931.332 56.9544 932.018 55.7743 933.335 55.7743C934.651 55.7743 935.355 56.9544 935.355 58.6965C935.355 60.4385 934.651 61.5999 933.335 61.5999ZM933.353 63.7728C936.412 63.7728 938.414 61.5812 938.414 58.6965C938.414 55.8118 936.412 53.6202 933.353 53.6202C930.313 53.6202 928.273 55.8118 928.273 58.6965C928.273 61.5812 930.313 63.7728 933.353 63.7728Z" fill="#ACB4C3"/>
<path d="M939.297 63.473H942.319V53.8824H939.297V63.473ZM939.297 52.5524H942.319V50.0798H939.297V52.5524Z" fill="#ACB4C3"/>
<path d="M943.629 66.6387H946.651V62.4803H946.688C947.281 63.2857 948.152 63.7728 949.376 63.7728C951.86 63.7728 953.51 61.7872 953.51 58.6777C953.51 55.793 951.971 53.6014 949.45 53.6014C948.152 53.6014 947.225 54.1821 946.577 55.0438H946.521V53.8824H943.629V66.6387ZM948.597 61.4126C947.3 61.4126 946.558 60.3449 946.558 58.7901C946.558 57.2354 947.225 56.0553 948.542 56.0553C949.839 56.0553 950.451 57.1417 950.451 58.7901C950.451 60.4198 949.747 61.4126 948.597 61.4126Z" fill="#ACB4C3"/>
<path d="M958.431 63.7728C960.915 63.7728 962.75 62.6863 962.75 60.5884C962.75 58.1345 960.785 57.7037 959.117 57.4227C957.912 57.1979 956.836 57.1043 956.836 56.4299C956.836 55.8305 957.411 55.5495 958.153 55.5495C958.987 55.5495 959.562 55.8118 959.673 56.6734H962.454C962.305 54.7815 960.859 53.6014 958.171 53.6014C955.928 53.6014 954.074 54.6504 954.074 56.6734C954.074 58.9212 955.835 59.3708 957.485 59.6518C958.746 59.8766 959.895 59.9702 959.895 60.8319C959.895 61.45 959.321 61.7872 958.412 61.7872C957.411 61.7872 956.781 61.3189 956.669 60.3636H953.814C953.907 62.4803 955.65 63.7728 958.431 63.7728Z" fill="#ACB4C3"/>
<path d="M966.855 63.7541C968.171 63.7541 969.005 63.2296 969.691 62.293H969.747V63.4731H972.639V53.8824H969.617V59.2397C969.617 60.3823 968.987 61.1691 967.948 61.1691C966.984 61.1691 966.521 60.5884 966.521 59.5394V53.8824H963.518V60.1763C963.518 62.3117 964.667 63.7541 966.855 63.7541Z" fill="#ACB4C3"/>
<path d="M973.953 63.4731H976.975V58.0971C976.975 56.9544 977.531 56.149 978.477 56.149C979.385 56.149 979.811 56.7484 979.811 57.7786V63.4731H982.833V58.0971C982.833 56.9544 983.371 56.149 984.335 56.149C985.243 56.149 985.67 56.7484 985.67 57.7786V63.4731H988.692V57.2354C988.692 55.0812 987.616 53.6014 985.466 53.6014C984.242 53.6014 983.223 54.1259 982.481 55.2873H982.444C981.962 54.2571 981.016 53.6014 979.774 53.6014C978.402 53.6014 977.494 54.2571 976.901 55.2498H976.845V53.8824H973.953V63.4731Z" fill="#ACB4C3"/>
<path fill-rule="evenodd" clip-rule="evenodd" d="M866.685 44.0373C865.58 44.818 864.58 45.7412 863.713 46.7803C867.258 46.4478 871.762 46.9908 876.991 49.6324C882.574 52.4533 887.071 52.5487 890.2 51.9388C889.916 51.0702 889.558 50.2354 889.135 49.4418C885.553 49.8235 880.961 49.3182 875.609 46.6145C872.21 44.8976 869.215 44.1904 866.685 44.0373ZM887.042 46.4324C884.214 43.2389 880.103 41.2292 875.527 41.2292C874.184 41.2292 872.88 41.4025 871.637 41.7283C873.32 42.1924 875.108 42.8713 876.991 43.8222C880.909 45.8017 884.292 46.4391 887.042 46.4324ZM890.869 54.9877C887.088 55.7419 881.868 55.587 875.609 52.4248C869.757 49.4685 865.099 49.5057 861.958 50.211C861.796 50.2474 861.638 50.2856 861.483 50.3254C861.072 51.2292 860.744 52.1795 860.508 53.1663C860.76 53.0984 861.02 53.0339 861.288 52.9736C865.099 52.118 870.483 52.1551 876.991 55.4427C882.842 58.399 887.5 58.3618 890.641 57.6565C890.749 57.6324 890.855 57.6074 890.959 57.5816C890.971 57.3355 890.976 57.0879 890.976 56.8389C890.976 56.2126 890.94 55.5948 890.869 54.9877ZM890.455 60.8758C886.711 61.5371 881.643 61.2833 875.609 58.2351C869.757 55.2787 865.099 55.316 861.958 56.0213C861.261 56.1778 860.634 56.3684 860.08 56.5697C860.079 56.6593 860.078 56.749 860.078 56.8389C860.078 65.46 866.995 72.4487 875.527 72.4487C882.678 72.4487 888.694 67.5401 890.455 60.8758Z" fill="#ACB4C3"/>
<rect x="802" y="1" width="248.5" height="112" stroke="#E7EAEE"/>
<path d="M1298.22 63.597H1307.61V60.7873H1301.56V50.2039H1298.22V63.597Z" fill="#ACB4C3"/>
<path d="M1313.17 61.7238C1311.83 61.7238 1311.14 60.5625 1311.14 58.8204C1311.14 57.0784 1311.83 55.8983 1313.17 55.8983C1314.51 55.8983 1315.23 57.0784 1315.23 58.8204C1315.23 60.5625 1314.51 61.7238 1313.17 61.7238ZM1313.19 63.8967C1316.3 63.8967 1318.34 61.7051 1318.34 58.8204C1318.34 55.9358 1316.3 53.7441 1313.19 53.7441C1310.1 53.7441 1308.03 55.9358 1308.03 58.8204C1308.03 61.7051 1310.1 63.8967 1313.19 63.8967Z" fill="#ACB4C3"/>
<path d="M1323.72 66.9125C1325.16 66.9125 1326.42 66.594 1327.27 65.8448C1328.04 65.1517 1328.55 64.1027 1328.55 62.6604V54.0063H1325.61V55.0366H1325.57C1325.01 54.2311 1324.14 53.7253 1322.86 53.7253C1320.46 53.7253 1318.8 55.7109 1318.8 58.5207C1318.8 61.4615 1320.82 63.0725 1322.99 63.0725C1324.16 63.0725 1324.89 62.6042 1325.46 61.9673H1325.53V62.9226C1325.53 64.084 1324.99 64.7583 1323.69 64.7583C1322.67 64.7583 1322.16 64.3275 1321.99 63.8217H1319.01C1319.31 65.826 1321.07 66.9125 1323.72 66.9125ZM1323.71 60.8059C1322.56 60.8059 1321.8 59.8693 1321.8 58.427C1321.8 56.9659 1322.56 56.0293 1323.71 56.0293C1324.99 56.0293 1325.67 57.1158 1325.67 58.4083C1325.67 59.757 1325.04 60.8059 1323.71 60.8059Z" fill="#ACB4C3"/>
<path d="M1334.6 61.7238C1333.26 61.7238 1332.56 60.5625 1332.56 58.8204C1332.56 57.0784 1333.26 55.8983 1334.6 55.8983C1335.94 55.8983 1336.66 57.0784 1336.66 58.8204C1336.66 60.5625 1335.94 61.7238 1334.6 61.7238ZM1334.62 63.8967C1337.73 63.8967 1339.77 61.7051 1339.77 58.8204C1339.77 55.9358 1337.73 53.7441 1334.62 53.7441C1331.53 53.7441 1329.45 55.9358 1329.45 58.8204C1329.45 61.7051 1331.53 63.8967 1334.62 63.8967Z" fill="#ACB4C3"/>
<path d="M1340.67 63.597H1343.74V54.0063H1340.67V63.597ZM1340.67 52.6764H1343.74V50.2038H1340.67V52.6764Z" fill="#ACB4C3"/>
<path d="M1345.07 66.7626H1348.15V62.6042H1348.18C1348.79 63.4096 1349.67 63.8967 1350.92 63.8967C1353.44 63.8967 1355.12 61.9111 1355.12 58.8016C1355.12 55.917 1353.56 53.7253 1350.99 53.7253C1349.67 53.7253 1348.73 54.306 1348.07 55.1677H1348.01V54.0063H1345.07V66.7626ZM1350.13 61.5365C1348.81 61.5365 1348.05 60.4688 1348.05 58.914C1348.05 57.3593 1348.73 56.1792 1350.07 56.1792C1351.39 56.1792 1352.01 57.2656 1352.01 58.914C1352.01 60.5437 1351.3 61.5365 1350.13 61.5365Z" fill="#ACB4C3"/>
<path d="M1360.13 63.8967C1362.65 63.8967 1364.52 62.8103 1364.52 60.7123C1364.52 58.2585 1362.52 57.8276 1360.83 57.5467C1359.6 57.3219 1358.51 57.2282 1358.51 56.5539C1358.51 55.9545 1359.09 55.6735 1359.85 55.6735C1360.69 55.6735 1361.28 55.9357 1361.39 56.7974H1364.22C1364.07 54.9055 1362.6 53.7254 1359.86 53.7254C1357.58 53.7254 1355.7 54.7744 1355.7 56.7974C1355.7 59.0452 1357.49 59.4948 1359.17 59.7757C1360.45 60.0005 1361.62 60.0942 1361.62 60.9558C1361.62 61.574 1361.03 61.9112 1360.11 61.9112C1359.09 61.9112 1358.45 61.4429 1358.34 60.4875H1355.43C1355.53 62.6042 1357.3 63.8967 1360.13 63.8967Z" fill="#ACB4C3"/>
<path d="M1368.7 63.878C1370.04 63.878 1370.88 63.3535 1371.58 62.4169H1371.64V63.597H1374.58V54.0063H1371.51V59.3636C1371.51 60.5063 1370.87 61.293 1369.81 61.293C1368.83 61.293 1368.36 60.7123 1368.36 59.6633V54.0063H1365.3V60.3002C1365.3 62.4356 1366.47 63.878 1368.7 63.878Z" fill="#ACB4C3"/>
<path d="M1375.92 63.597H1378.99V58.221C1378.99 57.0783 1379.56 56.2729 1380.52 56.2729C1381.44 56.2729 1381.88 56.8723 1381.88 57.9025V63.597H1384.95V58.221C1384.95 57.0783 1385.5 56.2729 1386.48 56.2729C1387.4 56.2729 1387.84 56.8723 1387.84 57.9025V63.597H1390.91V57.3593C1390.91 55.2051 1389.82 53.7253 1387.63 53.7253C1386.38 53.7253 1385.35 54.2498 1384.59 55.4112H1384.55C1384.06 54.381 1383.1 53.7253 1381.84 53.7253C1380.44 53.7253 1379.52 54.381 1378.92 55.3737H1378.86V54.0063H1375.92V63.597Z" fill="#ACB4C3"/>
<path d="M1279.47 42.5429L1276.38 41.7204L1273.77 51.3747L1271.42 42.6587L1268.33 43.4813L1270.87 52.8982L1264.54 46.6133L1262.28 48.8604L1269.22 55.7543L1260.58 53.4539L1259.75 56.5236L1269.19 59.0371C1269.09 58.5738 1269.03 58.0912 1269.03 57.5953C1269.03 54.0849 1271.89 51.2393 1275.43 51.2393C1278.96 51.2393 1281.82 54.0849 1281.82 57.5953C1281.82 58.088 1281.77 58.5677 1281.66 59.0282L1290.24 61.3124L1291.07 58.2428L1281.59 55.7193L1290.23 53.4187L1289.41 50.3491L1279.93 52.8724L1286.25 46.5875L1283.99 44.3403L1277.15 51.1385L1279.47 42.5429Z" fill="#ACB4C3"/>
<path d="M1281.65 59.064C1281.39 60.1766 1280.83 61.1762 1280.06 61.9771L1286.28 68.1531L1288.54 65.906L1281.65 59.064Z" fill="#ACB4C3"/>
<path d="M1280 62.0416C1279.22 62.8297 1278.24 63.4178 1277.14 63.7208L1279.4 72.108L1282.49 71.2854L1280 62.0416Z" fill="#ACB4C3"/>
<path d="M1277.02 63.7515C1276.51 63.882 1275.98 63.9513 1275.43 63.9513C1274.84 63.9513 1274.26 63.8717 1273.72 63.7227L1271.46 72.1174L1274.55 72.9399L1277.02 63.7515Z" fill="#ACB4C3"/>
<path d="M1273.61 63.6916C1272.53 63.3735 1271.56 62.7779 1270.8 61.9876L1264.57 68.1788L1266.83 70.426L1273.61 63.6916Z" fill="#ACB4C3"/>
<path d="M1270.75 61.9329C1270 61.1376 1269.46 60.1514 1269.2 59.0559L1260.59 61.3477L1261.41 64.4173L1270.75 61.9329Z" fill="#ACB4C3"/>
<rect x="1202.5" y="1" width="248.5" height="112" stroke="#E7EAEE"/>
</svg>
