<svg width="59" height="59" viewBox="0 0 59 59" fill="none" xmlns="http://www.w3.org/2000/svg">
<path fill-rule="evenodd" clip-rule="evenodd" d="M8.64258 8.64027C14.1692 3.10995 21.6779 0 29.5 0C37.3221 0 44.8308 3.10995 50.3574 8.64027C55.8887 14.1706 59 21.6793 59 29.5C59 37.3207 55.8887 44.8294 50.3574 50.3597C44.8308 55.8901 37.3221 59 29.5 59C21.6779 59 14.1692 55.8901 8.64258 50.3597C3.11133 44.8294 0 37.3207 0 29.5C0.00153248 21.676 3.11023 14.1728 8.64258 8.64027ZM30.5555 21.7784C27.6885 22.9717 21.9545 25.4419 13.3534 29.1884C11.9567 29.7438 11.2238 30.2873 11.1593 30.8183C11.0458 31.7153 12.1692 32.0691 13.6957 32.5498C13.905 32.6158 14.122 32.6841 14.3444 32.7565C15.8516 33.246 17.8798 33.819 18.9307 33.8416C19.8895 33.8623 20.9542 33.4682 22.1296 32.6597C30.1684 27.2359 34.3122 24.4942 34.5749 24.4352C34.7593 24.3937 35.0128 24.3412 35.1834 24.4947C35.3585 24.6477 35.3401 24.9381 35.3216 25.016C35.2129 25.4898 30.8167 29.5771 28.529 31.7041C27.8098 32.3728 27.299 32.8477 27.1953 32.9557C26.9638 33.1962 26.7277 33.4237 26.5009 33.6424C25.102 34.9908 24.0526 36.0025 26.5592 37.654C27.7746 38.4545 28.7447 39.1153 29.7143 39.7758C30.7561 40.4854 31.7973 41.1945 33.1414 42.0762C33.4871 42.3027 33.8171 42.538 34.1386 42.7672C35.3603 43.6381 36.4578 44.4204 37.8153 44.2956C38.6035 44.2233 39.4194 43.4821 39.8296 41.2714C40.8068 36.0467 42.7289 24.727 43.1714 20.0623C43.2129 19.6539 43.1622 19.1308 43.1253 18.9012C43.0838 18.6714 43.0009 18.3442 42.7059 18.1022C42.3509 17.8152 41.807 17.7549 41.5627 17.7588C40.4519 17.7788 38.751 18.3707 30.5555 21.7784Z" fill="url(#paint0_linear_5113_547)"/>
<defs>
<linearGradient id="paint0_linear_5113_547" x1="2950" y1="0" x2="2950" y2="5900" gradientUnits="userSpaceOnUse">
<stop stop-color="#2AABEE"/>
<stop offset="1" stop-color="#229ED9"/>
</linearGradient>
</defs>
</svg>
